Coordinates
version=1
nRows=37
nColumns=38
inDegrees=no

Units are S.I. units (second, meters, Newtons, ...)
If the header above contains a line with 'inDegrees', this indicates whether rotational values are in degrees (yes) or radians (no).

endheader
time	pelvis_tilt	pelvis_list	pelvis_rotation	pelvis_tx	pelvis_ty	pelvis_tz	hip_flexion_r	hip_adduction_r	hip_rotation_r	knee_angle_r	ankle_angle_r	subtalar_angle_r	mtp_angle_r	hip_flexion_l	hip_adduction_l	hip_rotation_l	knee_angle_l	ankle_angle_l	subtalar_angle_l	mtp_angle_l	lumbar_extension	lumbar_bending	lumbar_rotation	arm_flex_r	arm_add_r	arm_rot_r	elbow_flex_r	pro_sup_r	wrist_flex_r	wrist_dev_r	arm_flex_l	arm_add_l	arm_rot_l	elbow_flex_l	pro_sup_l	wrist_flex_l	wrist_dev_l
1.16	2.92773	1.45194	-1.49492	0.793992	0.55736	0.934311	-0.420303	0.0478478	-0.0939243	0.129869	0.199875	0	0	0.205177	0.0164573	-0.388916	0.0236671	-0.00498372	0	0	-0.269562	0.00879293	0.181719	0.117534	-0.336549	1.01229	0.373453	0.684264	0	0	0.0528161	-0.161299	0.10225	0.354223	1.5708	0	0
1.17	2.95252	1.4481	-1.52281	0.794738	0.568605	0.933579	-0.422868	0.0392881	-0.104529	0.157147	0.206897	0	0	0.200364	0.018452	-0.392587	0.042374	-0.00775733	0	0	-0.271304	0.00306456	0.185278	0.111133	-0.333232	1.00226	0.373664	0.688263	0	0	0.050017	-0.163041	0.0962671	0.354559	1.5708	0	0
1.18	2.98981	1.44527	-1.56019	0.795085	0.580086	0.93291	-0.423324	0.0292117	-0.11897	0.186853	0.213215	0	0	0.197136	0.0227688	-0.393954	0.0584642	-0.0224441	0	0	-0.271601	-0.00391884	0.186092	0.103917	-0.329229	0.989743	0.373253	0.693247	0	0	0.0473186	-0.165197	0.0909076	0.35377	1.5708	0	0
1.19	3.03128	1.44315	-1.60162	0.795276	0.591541	0.932403	-0.420176	0.017647	-0.133613	0.221026	0.217617	0	0	0.195839	0.0267744	-0.398974	0.0747142	-0.0495237	0	0	-0.271217	-0.0116407	0.187031	0.0964511	-0.324799	0.974179	0.372338	0.698502	0	0	0.0451757	-0.167254	0.0858442	0.353365	1.5708	0	0
1.2	3.07665	1.44145	-1.64804	0.795364	0.60299	0.932135	-0.412801	0.00381125	-0.1476	0.260988	0.219704	0	0	0.196595	0.0300518	-0.409247	0.0945663	-0.0761321	0	0	-0.270321	-0.0201184	0.189373	0.08869	-0.320145	0.957043	0.370834	0.7051	0	0	0.0431092	-0.169052	0.082598	0.353129	1.5708	0	0
1.21	3.13149	1.43958	-1.70451	0.795328	0.614516	0.932189	-0.402171	-0.012932	-0.159694	0.305533	0.218676	0	0	0.198222	0.0343787	-0.420118	0.11872	-0.0891556	0	0	-0.269103	-0.0299971	0.192217	0.0810957	-0.315291	0.940233	0.368871	0.713885	0	0	0.041109	-0.170658	0.0803355	0.352241	1.5708	0	0
1.22	-3.09598	1.43683	-1.76008	0.795019	0.625916	0.932643	-0.389097	-0.0301834	-0.170764	0.354268	0.211131	0	0	0.199826	0.0395591	-0.426859	0.146174	-0.0881374	0	0	-0.268918	-0.0398913	0.193544	0.0743962	-0.310798	0.923717	0.3673	0.723339	0	0	0.0399284	-0.17227	0.0795306	0.351175	1.5708	0	0
1.23	-3.04585	1.43293	-1.80934	0.794659	0.637321	0.93351	-0.374022	-0.0475687	-0.179625	0.407028	0.195369	0	0	0.199455	0.0449279	-0.429972	0.173824	-0.0802347	0	0	-0.269685	-0.0493724	0.194615	0.0682848	-0.306384	0.908715	0.365529	0.732922	0	0	0.0395366	-0.173972	0.0798769	0.350249	1.5708	0	0
1.24	-3.00493	1.42849	-1.84892	0.794277	0.648841	0.934692	-0.356032	-0.0649037	-0.185848	0.464285	0.17248	0	0	0.196541	0.0498508	-0.428884	0.199496	-0.0698179	0	0	-0.270682	-0.0577834	0.195808	0.0622904	-0.30235	0.895957	0.364014	0.74179	0	0	0.0391931	-0.175711	0.0815576	0.34954	1.5708	0	0
1.25	-2.96624	1.42549	-1.88488	0.793552	0.66032	0.935921	-0.331559	-0.0826889	-0.190078	0.528055	0.141993	0	0	0.193718	0.0549781	-0.427255	0.222503	-0.0576447	0	0	-0.269911	-0.0648402	0.195976	0.0565389	-0.298869	0.884492	0.361991	0.752497	0	0	0.0387805	-0.177055	0.0846636	0.348983	1.5708	0	0
1.26	-2.9298	1.42543	-1.91686	0.79252	0.671659	0.936897	-0.299541	-0.0996087	-0.191788	0.596316	0.100065	0	0	0.192037	0.0605906	-0.427772	0.24025	-0.046658	0	0	-0.265865	-0.069806	0.194969	0.0510871	-0.29647	0.875987	0.360061	0.762245	0	0	0.0385015	-0.178132	0.0888204	0.348129	1.5708	0	0
1.27	-2.89779	1.42969	-1.94351	0.791349	0.68293	0.937281	-0.259796	-0.114343	-0.189939	0.666751	0.0478989	0	0	0.196884	0.0625129	-0.435484	0.262271	-0.0342923	0	0	-0.256756	-0.0718532	0.193787	0.0448902	-0.294779	0.866098	0.358378	0.77646	0	0	0.0368359	-0.179759	0.0960243	0.349063	1.5708	0	0
1.28	-2.8415	1.42656	-1.99689	0.790712	0.693676	0.938623	-0.224187	-0.134764	-0.182278	0.733832	-0.0110496	0	0	0.194252	0.0713158	-0.437529	0.279573	-0.0299259	0	0	-0.254677	-0.0814837	0.193403	0.0415879	-0.292106	0.859658	0.356713	0.7817	0	0	0.0370875	-0.183593	0.104026	0.350776	1.5708	0	0
1.29	-2.83285	1.4408	-1.99954	0.789227	0.704685	0.937255	-0.172176	-0.139906	-0.171042	0.802351	-0.0686012	0	0	0.197883	0.0712399	-0.434405	0.279642	-0.020658	0	0	-0.235605	-0.0742464	0.192346	0.0339362	-0.295766	0.855502	0.361704	0.782576	0	0	0.0309562	-0.186106	0.113867	0.358493	1.5708	0	0
1.3	-2.79079	1.4449	-2.03884	0.788485	0.715132	0.937105	-0.126838	-0.152159	-0.154761	0.867012	-0.127327	0	0	0.196665	0.0767586	-0.429509	0.28707	-0.00954931	0	0	-0.226032	-0.0773418	0.191847	0.0296107	-0.296346	0.851564	0.364156	0.781322	0	0	0.0258684	-0.192025	0.125809	0.369643	1.5708	0	0
1.31	-2.86539	1.44059	-1.96038	0.787235	0.725094	0.939475	-0.10085	-0.156943	-0.150497	0.915624	-0.201109	0	0	0.178393	0.0731582	-0.418472	0.29058	-0.000124954	0	0	-0.233903	-0.0681205	0.190728	0.028211	-0.300555	0.845533	0.367293	0.78328	0	0	0.0267965	-0.191389	0.129652	0.370772	1.5708	0	0
1.32	-2.70582	1.44507	-2.1207	0.787678	0.735216	0.937492	-0.0404823	-0.175774	-0.115948	0.987743	-0.247215	0	0	0.18529	0.0906927	-0.416928	0.298114	0.0113273	0	0	-0.215753	-0.0881391	0.189793	0.0236645	-0.296183	0.8399	0.369389	0.789335	0	0	0.0141175	-0.206937	0.148181	0.398907	1.5708	0	0
1.33	-2.80082	1.43858	-2.02333	0.786554	0.744552	0.940401	-0.017811	-0.176344	-0.107786	1.02923	-0.311814	0	0	0.162173	0.0862328	-0.407475	0.298628	0.0176243	0	0	-0.229202	-0.0783135	0.188254	0.0245852	-0.300651	0.830521	0.372932	0.794098	0	0	0.0155413	-0.20523	0.147849	0.401766	1.5708	0	0
1.34	-2.67063	1.43944	-2.15323	0.78698	0.754457	0.938929	0.0341743	-0.188742	-0.0736791	1.08952	-0.331052	0	0	0.163359	0.102079	-0.407044	0.303341	0.0275866	0	0	-0.216069	-0.096265	0.185038	0.0217078	-0.296306	0.823383	0.375855	0.797308	0	0	0.00467872	-0.218053	0.154682	0.426018	1.5708	0	0
1.35	-2.67046	1.43606	-2.15053	0.786528	0.763801	0.939935	0.066058	-0.19112	-0.0547005	1.13235	-0.344369	0	0	0.149055	0.106663	-0.401019	0.302835	0.0345292	0	0	-0.218622	-0.0982849	0.180361	0.0223088	-0.296136	0.81828	0.378442	0.80153	0	0	-0.00119132	-0.224366	0.162975	0.442599	1.5708	0	0
1.36	-2.68197	1.43216	-2.1355	0.785986	0.773048	0.941238	0.0950408	-0.191128	-0.0380697	1.17183	-0.335098	0	0	0.131734	0.110584	-0.395964	0.299324	0.0404191	0	0	-0.222599	-0.0988183	0.17484	0.0236994	-0.295765	0.816144	0.379928	0.806614	0	0	-0.00500966	-0.228522	0.169316	0.453449	1.5708	0	0
1.37	-2.70096	1.4283	-2.11281	0.785346	0.782267	0.942722	0.122688	-0.189202	-0.0226104	1.20927	-0.306705	0	0	0.112326	0.114004	-0.391989	0.292928	0.0451851	0	0	-0.226991	-0.0978965	0.168834	0.0256495	-0.295613	0.815478	0.381076	0.810976	0	0	-0.00797404	-0.23062	0.173421	0.460761	1.5708	0	0
1.38	-2.72501	1.42503	-2.08451	0.784569	0.791392	0.944256	0.148904	-0.186155	-0.00912385	1.2424	-0.271399	0	0	0.0920153	0.116753	-0.386739	0.284485	0.0493775	0	0	-0.231333	-0.0953975	0.162221	0.0281311	-0.295202	0.815345	0.381135	0.814461	0	0	-0.00934537	-0.230312	0.17477	0.463057	1.5708	0	0
1.39	-2.75143	1.42218	-2.05264	0.783638	0.800276	0.945824	0.173633	-0.183086	0.00044083	1.26926	-0.240218	0	0	0.0716535	0.118985	-0.379378	0.275017	0.0533254	0	0	-0.236028	-0.0917531	0.154337	0.0314564	-0.294243	0.815991	0.379741	0.818113	0	0	-0.00888187	-0.228234	0.173824	0.461256	1.5708	0	0
1.4	-2.77848	1.4193	-2.01977	0.782673	0.808971	0.947437	0.196429	-0.180176	0.00686666	1.28905	-0.215273	0	0	0.0508974	0.120806	-0.371235	0.264544	0.0571887	0	0	-0.241116	-0.0876225	0.145859	0.0356365	-0.292593	0.817044	0.376865	0.822483	0	0	-0.00658988	-0.22459	0.17018	0.45572	1.5708	0	0
1.41	-2.89957	1.41426	-1.89372	0.781139	0.816475	0.950954	0.209371	-0.170274	-0.000784031	1.29533	-0.207113	0	0	0.0231318	0.109013	-0.360242	0.2533	0.0584868	0	0	-0.257632	-0.0677362	0.140407	0.0440391	-0.29513	0.81625	0.373087	0.830748	0	0	0.00691108	-0.210038	0.155393	0.430711	1.5708	0	0
1.42	-2.92927	1.41212	-1.85757	0.780245	0.824843	0.952406	0.229376	-0.165953	0.00187045	1.30332	-0.188901	0	0	0.00457103	0.108123	-0.352715	0.244349	0.0622435	0	0	-0.262008	-0.0618458	0.131703	0.0491351	-0.293177	0.815453	0.369986	0.835457	0	0	0.012578	-0.204312	0.145025	0.418341	1.5708	0	0
1.43	-2.95846	1.4103	-1.82126	0.779297	0.833077	0.953778	0.248002	-0.161952	0.00210837	1.30585	-0.172063	0	0	-0.0135668	0.106931	-0.344168	0.23478	0.0650408	0	0	-0.26609	-0.0555251	0.122571	0.054692	-0.291184	0.814929	0.366342	0.839511	0	0	0.019188	-0.19886	0.135078	0.404359	1.5708	0	0
1.44	-2.98696	1.40865	-1.78536	0.778313	0.841141	0.955041	0.265443	-0.158392	0.000213626	1.30348	-0.156256	0	0	-0.0312072	0.105419	-0.334995	0.225079	0.0674986	0	0	-0.270158	-0.0489831	0.113519	0.0608359	-0.289965	0.817588	0.362173	0.844495	0	0	0.0267451	-0.193831	0.126463	0.390138	1.5708	0	0
1.45	-2.93695	1.41059	-1.82606	0.777829	0.8503	0.954501	0.287787	-0.1607	0.00860192	1.30268	-0.13101	0	0	-0.0439373	0.115694	-0.32525	0.213855	0.0725103	0	0	-0.263698	-0.0559946	0.100949	0.0630229	-0.285265	0.824037	0.357924	0.849978	0	0	0.0281304	-0.195761	0.120443	0.384187	1.5708	0	0
1.46	-2.96865	1.40985	-1.78744	0.776945	0.858156	0.955574	0.303059	-0.156668	0.00491795	1.29074	-0.118915	0	0	-0.0598201	0.112522	-0.317991	0.205761	0.0768597	0	0	-0.267397	-0.0488883	0.0930589	0.069391	-0.285906	0.826728	0.356617	0.850712	0	0	0.0346352	-0.19317	0.117978	0.377065	1.5708	0	0
1.47	-2.99997	1.40918	-1.74951	0.776116	0.865966	0.956586	0.3162	-0.152808	4.59187e-05	1.27345	-0.107517	0	0	-0.075352	0.109101	-0.309533	0.1977	0.0799269	0	0	-0.27089	-0.0417177	0.0859807	0.0754026	-0.287368	0.831376	0.355669	0.85153	0	0	0.0418089	-0.191148	0.116874	0.369118	1.5708	0	0
1.48	-3.03301	1.40838	-1.71061	0.775359	0.87367	0.95753	0.327811	-0.148555	-0.00581664	1.25138	-0.0906275	0	0	-0.0907285	0.105123	-0.301665	0.189474	0.0827238	0	0	-0.274496	-0.0341767	0.0801049	0.0811763	-0.290076	0.838717	0.355642	0.853094	0	0	0.0489695	-0.189702	0.118183	0.362653	1.5708	0	0
1.49	-3.06744	1.40823	-1.67135	0.774689	0.881301	0.958323	0.339007	-0.143655	-0.0120627	1.22454	-0.0709286	0	0	-0.105249	0.100744	-0.296099	0.180425	0.0860929	0	0	-0.277203	-0.0262542	0.0756094	0.086675	-0.293836	0.844683	0.357351	0.853072	0	0	0.055643	-0.188842	0.121062	0.356839	1.5708	0	0
1.5	-3.09773	1.40807	-1.63705	0.774124	0.888903	0.959069	0.34877	-0.139219	-0.0186984	1.19295	-0.0515967	0	0	-0.120025	0.0970556	-0.291193	0.170472	0.0884815	0	0	-0.279671	-0.0191525	0.0721345	0.0918031	-0.297763	0.848104	0.360164	0.850144	0	0	0.0616068	-0.188479	0.125783	0.35323	1.5708	0	0
1.51	-3.12813	1.40764	-1.60322	0.773643	0.896481	0.959781	0.356197	-0.134934	-0.0266239	1.15579	-0.0338227	0	0	-0.134935	0.0932447	-0.285971	0.160862	0.0909674	0	0	-0.28239	-0.0119888	0.0695717	0.0966305	-0.301595	0.852055	0.36245	0.84699	0	0	0.0666599	-0.188455	0.13163	0.352123	1.5708	0	0
1.52	3.12246	1.40631	-1.56736	0.77322	0.904049	0.960534	0.359925	-0.1306	-0.0371234	1.1122	-0.0170703	0	0	-0.151065	0.0890898	-0.279498	0.150652	0.0927902	0	0	-0.286122	-0.00440258	0.0676126	0.101666	-0.305813	0.859646	0.364576	0.843707	0	0	0.0713486	-0.188365	0.138545	0.352613	1.5708	0	0
